<svg width="180" height="72" viewBox="0 0 180 72" fill="none" xmlns="http://www.w3.org/2000/svg">
<path d="M31.8973 6.73547L30.3227 16.0014H23.1587L24.7353 6.73547H16.0581L11.5168 33.4445H20.194L21.7822 24.0997H28.9462L27.356 33.4445H36.033L40.5742 6.73547H31.8973Z" fill="black"/>
<path d="M54.6693 35.3347H47.2698L47.2718 35.3159H38.5968L38.5928 35.3347H30.8571L29.5083 43.4331H37.2163L34.0555 62.0252H42.7305L45.8913 43.4331H53.3224L54.6693 35.3347Z" fill="black"/>
<path d="M105.145 62.0252H96.468L101.009 35.3159H109.686L105.145 62.0252Z" fill="black"/>
<path d="M99.6383 35.3347H92.2371L92.241 35.3159H83.5638L83.5599 35.3347H75.8242L74.4773 43.4331H82.1834L79.0225 62.0252H87.6998L90.8603 43.4331H98.2914L99.6383 35.3347Z" fill="black"/>
<path d="M77.7762 25.3717L80.9446 6.7345H72.2696L67.7283 33.4436H75.5549H87.7013L89.0739 25.3717H77.7762Z" fill="black"/>
<path d="M66.1385 10.2327C61.3065 4.91721 52.0223 5.01498 45.406 10.4508C38.7881 15.8886 37.3422 24.6055 42.1741 29.921C47.0063 35.2365 56.2886 35.1387 62.9066 29.701C69.5248 24.2652 70.9707 15.5482 66.1385 10.2327ZM57.7325 24.0094C55.0287 26.2319 51.2349 26.2714 49.2592 24.0997C47.2832 21.928 47.8746 18.3649 50.5803 16.1424C53.2841 13.9199 57.0777 13.8804 59.0537 16.0521C61.0277 18.2257 60.4363 21.7888 57.7325 24.0094Z" fill="black"/>
<path d="M135.45 38.8265C130.618 33.5112 121.336 33.6088 114.717 39.0467C108.099 44.4843 106.653 53.2012 111.485 58.5168C116.318 63.8324 125.6 63.7346 132.218 58.2969C138.834 52.859 140.282 44.1421 135.45 38.8265ZM127.042 52.6035C124.338 54.8257 120.544 54.8653 118.568 52.6936C116.592 50.5219 117.184 46.9587 119.89 44.7364C122.593 42.5139 126.387 42.4743 128.363 44.646C130.339 46.8196 129.748 50.381 127.042 52.6035Z" fill="black"/>
<path d="M106.296 6.7345H102.037H93.3601L88.8188 33.4436H96.5465H102.035C108.299 33.4436 116.761 27.6167 117.868 20.0769C118.978 12.5332 113.966 6.7345 106.296 6.7345ZM109.148 20.5883C108.178 24.2473 104.727 25.2645 103.176 25.2645H98.8883L100.666 14.8046H104.664C107.431 14.8065 110.117 16.9293 109.148 20.5883Z" fill="black"/>
<path d="M29.1231 38.1458L27.7563 47.6918C27.7563 47.6918 26.5656 45.6613 25.818 45.0558C25.0703 44.4503 22.8551 43.0287 20.6398 43.0947C18.4245 43.1604 18.023 43.7922 19.5875 44.5293C21.1521 45.2664 24.9457 46.1349 26.7318 48.7674C28.5178 51.3997 28.5872 58.8888 20.8336 61.6264C13.0802 64.3643 8.50137 59.8722 7.65283 58.8532L9.20353 49.4912C9.20353 49.4912 10.8274 52.291 13.1534 53.4493C15.4794 54.6074 18.3771 54.3441 19.1168 53.9588C19.8546 53.5732 16.1638 52.6596 14.0039 51.4148C11.844 50.1682 8.87122 48.1771 10.5327 41.7276C12.1961 35.2763 24.0379 32.1439 29.1231 38.1458Z" fill="black"/>
<path d="M157.803 35.3159L155.879 46.639L150.06 35.3159H141.385L136.843 62.0252H145.519L147.486 50.4559L153.262 62.0252H153.379H161.939L166.48 35.3159H157.803Z" fill="black"/>
<path d="M44.2301 65.298C-0.0591968 66.5614 0.267159 71.2997 0.267159 71.2997C4.80053 71.1532 17.8844 71.3901 35.8972 71.627C56.6377 71.8996 83.917 72.174 112.215 71.86C165.213 71.2734 162.017 66.3678 162.017 66.3678C138.826 65.9277 76.6264 64.8242 76.6264 64.8242C68.0266 44.6074 72.2017 35.319 72.2017 35.319C53.5837 35.319 44.2301 65.298 44.2301 65.298Z" fill="url(#paint0_radial_2970_38658)"/>
<path d="M167.525 0C171.798 0 173.936 0.000325003 175.366 0.807276C176.625 1.51706 177.51 2.64922 177.893 4.04207C178.33 5.62578 177.812 7.69938 176.776 11.8457L175.22 18.0784C174.185 22.2248 173.667 24.2984 172.44 25.8821C171.361 27.2752 169.91 28.408 168.297 29.1178C166.463 29.9246 164.327 29.9242 160.054 29.9242H132.925C128.651 29.9242 126.514 29.9248 125.083 29.1178C123.825 28.408 122.94 27.2751 122.557 25.8821C122.12 24.2984 122.638 22.2247 123.673 18.0784L125.23 11.8457C126.265 7.69938 126.782 5.62578 128.01 4.04207C129.089 2.64907 130.54 1.51706 132.153 0.807276C133.986 0.000379336 136.123 0 140.397 0H167.525ZM132.86 7.5649L129.118 22.5507H134.368L135.015 19.964H135.869C136.778 19.964 137.672 19.806 138.551 19.4902C139.444 19.1743 140.258 18.7402 140.993 18.1874C141.728 17.6346 142.359 16.9829 142.885 16.2327C143.425 15.4825 143.805 14.6662 144.025 13.7843C144.245 12.9027 144.274 12.0802 144.112 11.317C143.964 10.5536 143.66 9.89523 143.201 9.34242C142.742 8.78962 142.145 8.35549 141.41 8.0396C140.688 7.72376 139.873 7.5649 138.965 7.5649H132.86ZM149.066 7.5649L140.38 22.5507H146.118L147.304 20.1611H151.069L151.083 22.5507H157.167L155.964 7.5649H149.066ZM156.997 7.5649L159.6 17.5156L158.343 22.5507H163.613L164.871 17.5156L172.462 7.5649H166.723L163.867 11.6723L163.082 7.5649H156.997ZM151.175 16.2327H149.16L151.1 12.5403L151.175 16.2327ZM137.781 12.3034C138.026 12.3034 138.238 12.3496 138.419 12.4417C138.602 12.5206 138.749 12.6393 138.858 12.797C138.985 12.9418 139.064 13.1132 139.096 13.3106C139.142 13.508 139.137 13.7188 139.081 13.9426C138.966 14.4032 138.698 14.7979 138.277 15.127C137.873 15.4427 137.433 15.6006 136.959 15.6007H136.124L136.947 12.3034H137.781Z" fill="black"/>
<defs>
<radialGradient id="paint0_radial_2970_38658" cx="0" cy="0" r="1" gradientTransform="matrix(-153.514 -4.57089 15.5232 -471.141 163.072 66.9979)" gradientUnits="userSpaceOnUse">
<stop stop-color="#FFBC95"/>
<stop offset="0.4679" stop-color="#FF7A78"/>
<stop offset="1" stop-color="#664EFF"/>
</radialGradient>
</defs>
</svg>
